<svg width="126" height="38" viewBox="0 0 126 38" fill="none" xmlns="http://www.w3.org/2000/svg">
<g clip-path="url(#clip0_1_388)">
<mask id="mask0_1_388" style="mask-type:luminance" maskUnits="userSpaceOnUse" x="0" y="0" width="125" height="38">
<path d="M124.984 0.214355H0.392578V37.7903H124.984V0.214355Z" fill="white"/>
</mask>
<g mask="url(#mask0_1_388)">
<mask id="mask1_1_388" style="mask-type:luminance" maskUnits="userSpaceOnUse" x="0" y="0" width="125" height="38">
<path d="M0.392578 0.214355H124.984V37.7904H0.392578V0.214355Z" fill="white"/>
</mask>
<g mask="url(#mask1_1_388)">
<path d="M48.1331 9.82421C48.108 9.87959 48.0719 9.9287 48.0274 9.96828C47.9829 10.0079 47.931 10.037 47.875 10.0538L45.5166 10.7918C45.2279 10.8798 45.0783 10.7918 44.9604 10.4871C44.8249 9.88302 44.4865 9.35132 44.0079 8.99052C43.5294 8.62972 42.9431 8.46429 42.3578 8.52489C40.1379 8.52489 39.3781 9.91287 39.3781 11.7817V16.0812C39.3781 17.9501 40.1274 19.338 42.3578 19.338C44.1934 19.338 45.1323 18.4361 45.1323 16.4734V15.8862H42.7349C42.689 15.8904 42.6428 15.8834 42.5997 15.866C42.5566 15.8485 42.5179 15.8209 42.4864 15.7854C42.4549 15.7499 42.4314 15.7072 42.4177 15.6608C42.404 15.6142 42.4004 15.5651 42.4073 15.517V13.1873C42.4015 13.1393 42.4058 13.0906 42.4199 13.0446C42.434 12.9987 42.4575 12.9564 42.4888 12.9212C42.5201 12.8859 42.5584 12.8584 42.6009 12.8405C42.6435 12.8227 42.6892 12.815 42.7349 12.818H48.0747C48.1203 12.8107 48.1669 12.8145 48.2109 12.8288C48.255 12.8433 48.2953 12.8681 48.329 12.9013C48.3627 12.9347 48.3888 12.9755 48.4053 13.021C48.4219 13.0664 48.4284 13.1153 48.4246 13.1638V16.7171C48.4246 20.1142 46.0606 22.674 42.3868 22.674C38.0304 22.674 35.9941 19.9503 35.9941 16.2309V11.6878C35.9941 7.94482 38.0304 5.24463 42.3868 5.24463C45.9104 5.24463 47.504 7.36532 48.1414 9.49131M60.1281 13.7186V22.0558C60.1305 22.1019 60.1237 22.148 60.108 22.1911C60.0924 22.2341 60.0684 22.2733 60.0375 22.3059C60.0065 22.3386 59.9695 22.364 59.9286 22.3804C59.8878 22.3969 59.8441 22.4042 59.8004 22.4016H57.392C57.3468 22.4067 57.301 22.4014 57.2579 22.3862C57.2148 22.3709 57.1752 22.3461 57.142 22.3133C57.1088 22.2805 57.0827 22.2405 57.0655 22.196C57.0482 22.1516 57.0403 22.1038 57.0421 22.0558V20.6907C56.7001 21.2984 56.212 21.7998 55.6273 22.1444C55.0426 22.489 54.3821 22.6644 53.7126 22.6529C51.4376 22.6529 49.967 21.1064 49.967 18.7285C49.967 16.3507 51.3486 15.0297 54.7171 14.7808C55.4449 14.7222 56.1759 14.7222 56.9036 14.7808V13.8319C56.9036 12.5843 56.2918 12.0746 55.2389 12.0746C54.8731 12.0201 54.5011 12.1096 54.194 12.3262C53.8869 12.5429 53.6662 12.8714 53.5741 13.2489C53.4628 13.5242 53.38 13.5712 53.1358 13.5008L50.7273 12.8549C50.4887 12.7845 50.4665 12.6442 50.511 12.4628C50.8386 10.6351 52.4811 9.29227 55.3668 9.29227C58.4077 9.29227 60.1169 10.8188 60.1169 13.6851M56.8986 18.0493V16.8837C56.256 16.8593 55.6125 16.8828 54.973 16.9543C53.7521 17.1122 53.0918 17.5049 53.0918 18.5007C53.0918 19.3967 53.6481 19.8828 54.6014 19.8828C55.119 19.8941 55.6254 19.7236 56.0412 19.3981C56.457 19.0725 56.7586 18.6105 56.8986 18.0844M68.8185 9.3275C69.4924 9.31466 70.1515 9.53712 70.6933 9.96031C71.2352 10.3835 71.6294 10.9837 71.8149 11.6678C72.7137 10.2798 73.8073 9.32456 75.3386 9.32456C77.4583 9.32456 78.6681 11.0818 78.6681 13.7586V22.0558C78.6647 22.1061 78.6516 22.1553 78.6298 22.2002C78.6079 22.245 78.5777 22.2848 78.5409 22.3171C78.5041 22.3494 78.4616 22.3736 78.4158 22.388C78.37 22.4026 78.3218 22.4071 78.2743 22.4016H75.7607C75.7132 22.4073 75.665 22.4027 75.6192 22.3883C75.5733 22.3738 75.5307 22.3496 75.494 22.3173C75.4572 22.285 75.4269 22.2452 75.4051 22.2003C75.3833 22.1553 75.3703 22.1062 75.3669 22.0558V14.3644C75.3669 13.1901 74.8841 12.5132 74.032 12.5132C73.1798 12.5132 72.4785 13.3041 72.1508 14.5047V22.0552C72.1539 22.0995 72.1483 22.1439 72.1343 22.1858C72.1203 22.2276 72.0983 22.266 72.0697 22.2984C72.041 22.3309 72.0063 22.3568 71.9677 22.3744C71.9291 22.3921 71.8875 22.4011 71.8455 22.401H69.1228C68.9286 22.401 68.8396 22.2606 68.8396 22.0552V14.3638C68.8396 13.1896 68.3568 12.5127 67.5047 12.5127C66.6526 12.5127 65.9289 13.3446 65.6236 14.5276V22.0546C65.6279 22.1011 65.6224 22.1481 65.6074 22.1921C65.5925 22.2361 65.5685 22.2762 65.5372 22.3092C65.5058 22.3423 65.468 22.3677 65.4262 22.3834C65.3845 22.3991 65.34 22.4049 65.2959 22.4004H62.6261C62.582 22.4049 62.5375 22.3991 62.4957 22.3834C62.454 22.3677 62.4162 22.3423 62.3848 22.3092C62.3535 22.2762 62.3295 22.2361 62.3146 22.1921C62.2996 22.1481 62.2941 22.1011 62.2984 22.0546V9.93047C62.2983 9.8861 62.3069 9.84218 62.3236 9.80145C62.3403 9.76073 62.3648 9.72409 62.3956 9.69383C62.4264 9.66357 62.4627 9.64034 62.5024 9.6256C62.542 9.61085 62.5841 9.60491 62.6261 9.60815H65.1847C65.2268 9.60399 65.2693 9.60929 65.3093 9.6237C65.3494 9.6381 65.3861 9.66129 65.417 9.69174C65.4479 9.72218 65.4724 9.7592 65.4889 9.80034C65.5053 9.84149 65.5133 9.88583 65.5123 9.93047V11.383C65.8648 10.7783 66.3529 10.2745 66.9336 9.91606C67.5143 9.55767 68.1697 9.35573 68.8419 9.32809M92.4319 9.60932C92.4986 9.90817 92.4319 10.1377 92.1487 10.1964L89.8293 10.911C89.7771 10.9375 89.7196 10.9506 89.6617 10.9491C89.6037 10.9476 89.5469 10.9316 89.496 10.9024C89.4451 10.8732 89.4014 10.8317 89.3686 10.7813C89.3359 10.7308 89.3149 10.6729 89.3076 10.6122C88.9738 9.43788 88.4087 8.53253 86.7884 8.53253C84.796 8.53253 84.1636 9.9205 84.1636 11.7893V16.0888C84.1636 17.9577 84.8867 19.3456 86.7884 19.3456C88.4977 19.3456 89.1524 18.3264 89.4132 17.0558C89.4191 16.9937 89.4393 16.9341 89.4721 16.8822C89.5049 16.8302 89.5493 16.7876 89.6014 16.758C89.6535 16.7285 89.7117 16.713 89.7709 16.7127C89.83 16.7126 89.8883 16.7277 89.9405 16.757L92.2656 17.5537C92.3218 17.5708 92.3741 17.5999 92.4192 17.6393C92.4643 17.6787 92.5013 17.7273 92.5278 17.7824C92.5544 17.8374 92.5699 17.8977 92.5735 17.9594C92.5771 18.021 92.5686 18.0827 92.5487 18.1408C91.9924 20.6361 90.2954 22.6616 86.7495 22.6616C82.7708 22.6616 80.7562 19.938 80.7562 16.2185V11.6878C80.7562 7.94482 82.8092 5.24463 86.7495 5.24463C90.2064 5.24463 91.8272 7.18214 92.4374 9.63163M104.075 13.7227V22.0599C104.078 22.106 104.071 22.152 104.055 22.1952C104.04 22.2383 104.016 22.2774 103.985 22.31C103.954 22.3428 103.917 22.3681 103.876 22.3846C103.835 22.401 103.791 22.4082 103.748 22.4057H101.339C101.294 22.4108 101.248 22.4056 101.205 22.3904C101.162 22.3751 101.123 22.3501 101.089 22.3174C101.056 22.2846 101.03 22.2446 101.013 22.2002C100.996 22.1557 100.988 22.1079 100.99 22.0599V20.6907C100.647 21.2984 100.16 21.7998 99.5751 22.1444C98.9904 22.489 98.3299 22.6644 97.6604 22.6529C95.3854 22.6529 93.9203 21.1064 93.9203 18.7285C93.9203 16.3507 95.2964 15.0297 98.6649 14.7808C99.3945 14.7221 100.127 14.7221 100.857 14.7808V13.8319C100.857 12.5843 100.241 12.0746 99.1922 12.0746C98.8269 12.0231 98.4563 12.114 98.1499 12.3302C97.8434 12.5463 97.6221 12.8729 97.5274 13.2489C97.4217 13.5242 97.3333 13.5712 97.0891 13.5008L94.6862 12.8549C94.4421 12.7845 94.4198 12.6442 94.4637 12.4628C94.7914 10.6351 96.4339 9.29227 99.3246 9.29227C102.365 9.29227 104.069 10.8188 104.069 13.6851M100.856 18.0493V16.8837C100.213 16.859 99.5703 16.8827 98.9308 16.9543C97.7071 17.1122 97.0496 17.5049 97.0496 18.5007C97.0496 19.3967 97.6059 19.8828 98.5592 19.8828C99.0766 19.8931 99.5825 19.7222 99.9981 19.3968C100.413 19.0715 100.715 18.61 100.856 18.0844M113.447 9.83712V12.309C113.447 12.6078 113.336 12.7246 113.053 12.7246H112.699C110.95 12.7246 109.924 13.5565 109.574 14.9445V22.0558C109.577 22.0986 109.572 22.1416 109.559 22.1823C109.546 22.2231 109.526 22.2605 109.499 22.2928C109.472 22.325 109.439 22.3512 109.403 22.3699C109.366 22.3886 109.326 22.3993 109.286 22.4016H106.511C106.471 22.3993 106.431 22.3886 106.394 22.3699C106.357 22.3512 106.325 22.325 106.298 22.2928C106.271 22.2605 106.25 22.2231 106.238 22.1823C106.225 22.1416 106.219 22.0986 106.222 22.0558V9.93047C106.221 9.88557 106.228 9.84077 106.244 9.79916C106.26 9.75756 106.285 9.72014 106.316 9.6895C106.347 9.65885 106.384 9.63571 106.424 9.62166C106.465 9.60761 106.508 9.60301 106.55 9.60815H109.047C109.308 9.60815 109.375 9.78957 109.375 9.97744V11.6878C109.695 10.9892 110.201 10.4039 110.83 10.0025C111.459 9.60123 112.186 9.40122 112.921 9.42672C113.359 9.42672 113.477 9.49718 113.477 9.81892M117.744 17.0406V17.5267C117.744 18.8683 118.404 19.8112 119.964 19.8112C121.524 19.8112 121.89 19.2241 122.283 18.452C122.478 18.1062 122.567 18.0598 122.916 18.2171L124.64 19.1424C124.996 19.3298 125.017 19.5118 124.863 19.857C124.119 21.6142 122.26 22.6511 119.941 22.6511C116.436 22.6511 114.601 20.4606 114.601 17.4556V14.5288C114.601 11.6003 116.325 9.3275 119.917 9.3275C123.33 9.3275 124.995 11.6173 124.995 14.4589V16.4916C124.995 16.8374 124.884 17.0787 124.439 17.0787L117.744 17.0406ZM117.744 14.3397V14.7795H121.967V14.3404C121.993 14.0424 121.957 13.742 121.861 13.4604C121.765 13.1787 121.612 12.923 121.411 12.711C121.211 12.4992 120.969 12.3364 120.703 12.2343C120.436 12.1323 120.152 12.0934 119.869 12.1204C119.586 12.093 119.3 12.1314 119.032 12.233C118.763 12.3344 118.52 12.4966 118.317 12.7082C118.115 12.9196 117.958 13.1754 117.859 13.4573C117.76 13.7392 117.721 14.0401 117.744 14.3397Z" fill="white"/>
<path d="M15.5252 0.214379H0.842006C0.783197 0.213758 0.724855 0.22545 0.670353 0.248775C0.615851 0.272102 0.566271 0.306602 0.524478 0.35028C0.482686 0.393956 0.44951 0.445946 0.42687 0.503241C0.40423 0.560536 0.392575 0.622 0.392578 0.684079V23.2238C0.394347 27.0862 1.84916 30.7897 4.43716 33.5202C7.02516 36.2506 10.5345 37.7845 14.1936 37.7845H15.5252C19.1837 37.7845 22.6923 36.2504 25.2792 33.5198C27.8662 30.7891 29.3195 27.0856 29.3195 23.2238V14.7763C29.3195 12.8642 28.9627 10.9707 28.2695 9.20411C27.5762 7.43753 26.5602 5.83237 25.2792 4.48029C23.9983 3.12819 22.4776 2.05566 20.804 1.32392C19.1304 0.592177 17.3367 0.215554 15.5252 0.215554M24.887 23.4686C24.887 28.9513 21.0746 33.0928 15.1369 33.0928C8.10628 33.0928 4.82067 28.6894 4.82067 22.6784V15.3387C4.82067 9.29133 8.10573 4.89494 15.1258 4.89494C20.8137 4.89494 23.3941 8.32727 24.4208 11.7602C24.4604 11.8513 24.4809 11.9504 24.4809 12.0505C24.481 12.1508 24.4605 12.2498 24.421 12.3409C24.3814 12.432 24.3237 12.5131 24.2518 12.5785C24.1799 12.644 24.0954 12.6923 24.0042 12.7202L20.1863 13.8944C19.7313 14.0406 19.4816 13.8944 19.3431 13.4083C18.7385 11.358 17.4675 10.2378 15.1369 10.2378C11.5298 10.2378 10.3311 12.4753 10.3311 15.5096V22.4612C10.3311 25.4836 11.5298 27.7329 15.1369 27.7329C18.1055 27.7329 19.6596 26.2745 19.6596 23.1052V22.1975H15.6809C15.6054 22.2084 15.5286 22.2007 15.4564 22.175C15.3842 22.1494 15.3187 22.1065 15.2648 22.0496C15.211 21.9927 15.1703 21.9236 15.146 21.8474C15.1217 21.7712 15.1144 21.6901 15.1247 21.6104V17.7635C15.1186 17.6848 15.1289 17.6056 15.1547 17.5315C15.1805 17.4574 15.2213 17.3901 15.2742 17.3342C15.3271 17.2784 15.3909 17.2353 15.4611 17.2081C15.5313 17.1809 15.6063 17.17 15.6809 17.1764H24.3207C24.3935 17.1664 24.4675 17.1737 24.5373 17.1976C24.6071 17.2216 24.671 17.2617 24.7243 17.315C24.7775 17.3683 24.8189 17.4336 24.8453 17.5059C24.8717 17.5782 24.8825 17.6558 24.877 17.733L24.887 23.4686Z" fill="#734BC3"/>
<path d="M39.2504 27.3881C39.2567 27.3997 39.2604 27.4127 39.2612 27.4261C39.262 27.4395 39.26 27.4529 39.2551 27.4652C39.2503 27.4777 39.2429 27.4887 39.2334 27.4976C39.2239 27.5065 39.2126 27.513 39.2003 27.5166L38.811 27.6452C38.7498 27.6452 38.7164 27.6452 38.6891 27.5923C38.6332 27.3646 38.5028 27.1651 38.321 27.0291C38.1393 26.893 37.9178 26.829 37.6957 26.8485C37.5448 26.8267 37.3911 26.842 37.2468 26.8934C37.1024 26.9447 36.9713 27.0305 36.8635 27.1442C36.7558 27.2579 36.6745 27.3964 36.6259 27.5488C36.5772 27.7011 36.5627 27.8634 36.5833 28.0227V29.5751C36.5627 29.7343 36.5772 29.8966 36.6259 30.0489C36.6745 30.2013 36.7558 30.3398 36.8635 30.4535C36.9713 30.5672 37.1024 30.653 37.2468 30.7044C37.3911 30.7557 37.5448 30.7711 37.6957 30.7493C38.3226 30.7493 38.7336 30.4446 38.7336 29.7594V29.1723H37.8242C37.7742 29.1723 37.7463 29.1723 37.7463 29.0842V28.7589C37.7463 28.7002 37.7463 28.6709 37.8242 28.6709H39.2337C39.2453 28.6691 39.2571 28.67 39.2683 28.6737C39.2795 28.6774 39.2898 28.6838 39.2983 28.6922C39.3069 28.7006 39.3135 28.7111 39.3177 28.7226C39.322 28.7342 39.3237 28.7466 39.3227 28.7589V29.8369C39.3246 30.0558 39.2827 30.2727 39.1996 30.4732C39.1166 30.6738 38.9942 30.8536 38.8407 31.0007C38.6872 31.148 38.5059 31.2591 38.3087 31.3271C38.1116 31.3951 37.9031 31.4183 37.6968 31.3952C37.47 31.4232 37.2401 31.3975 37.0239 31.3197C36.8077 31.2419 36.6108 31.1141 36.4474 30.9455C36.2841 30.777 36.1585 30.572 36.0799 30.3457C36.0013 30.1193 35.9717 29.8773 35.9931 29.6372V27.9933C35.9718 27.7534 36.0015 27.5114 36.0801 27.2851C36.1588 27.0588 36.2843 26.854 36.4477 26.6855C36.611 26.517 36.8079 26.3893 37.0241 26.3115C37.2402 26.2337 37.4701 26.208 37.6968 26.236C38.0402 26.2072 38.3825 26.3045 38.6656 26.5116C38.9487 26.7186 39.1553 27.0227 39.2504 27.3721M42.2468 30.1722V29.585C41.9843 29.5676 41.721 29.5676 41.4586 29.585C40.9702 29.6438 40.676 29.8251 40.676 30.2526C40.6697 30.3422 40.683 30.4323 40.7148 30.5157C40.7467 30.5991 40.7963 30.6736 40.8597 30.7335C40.9232 30.7935 40.9989 30.8373 41.0809 30.8615C41.1629 30.8857 41.2491 30.8898 41.3329 30.8732C41.5351 30.871 41.7317 30.8025 41.8955 30.6772C42.0593 30.5519 42.1822 30.376 42.2473 30.1739M42.8035 28.6744V31.2343C42.8035 31.2871 42.8035 31.3106 42.7201 31.3106H42.3307C42.2751 31.3106 42.2473 31.3106 42.2473 31.2343V30.7481C42.1406 30.9386 41.9888 31.0965 41.8069 31.2065C41.6249 31.3164 41.419 31.3746 41.2094 31.3752C41.066 31.3906 40.9212 31.3736 40.7846 31.3252C40.648 31.2766 40.5228 31.1979 40.4174 31.0941C40.3121 30.9904 40.2289 30.864 40.1737 30.7235C40.1184 30.583 40.0922 30.4317 40.0969 30.2797C40.0969 29.5944 40.5353 29.2192 41.3902 29.1494C41.6691 29.129 41.949 29.129 42.2278 29.1494V28.7179C42.2278 28.2259 41.9558 28.021 41.5175 28.021C41.3616 27.9936 41.2015 28.029 41.069 28.1201C40.9365 28.2112 40.8411 28.3514 40.8017 28.513C40.8017 28.5776 40.7572 28.5834 40.6904 28.5717L40.3133 28.4601C40.2521 28.4601 40.2355 28.4131 40.2521 28.3603C40.3684 27.8448 40.8084 27.5107 41.5315 27.5107C42.2545 27.5107 42.7969 27.8859 42.7969 28.685M45.3494 27.502C45.5418 27.4976 45.7301 27.5617 45.884 27.6838C46.0379 27.806 46.1485 27.979 46.1982 28.1754C46.301 27.979 46.45 27.8139 46.6308 27.6959C46.8116 27.578 47.0181 27.5111 47.2305 27.502C47.366 27.5031 47.4997 27.5346 47.6228 27.5942C47.7459 27.6539 47.8557 27.7404 47.9448 27.8481C48.034 27.9557 48.1006 28.0821 48.1401 28.2188C48.1797 28.3556 48.1914 28.4997 48.1744 28.6415V31.2249C48.1744 31.2836 48.1411 31.307 48.0854 31.307H47.7028C47.6416 31.307 47.6138 31.307 47.6138 31.2249V28.7589C47.6138 28.3022 47.4196 28.0544 47.0575 28.0544C46.8767 28.0763 46.7063 28.1552 46.5687 28.281C46.4311 28.4066 46.3326 28.5732 46.2861 28.7589V31.2366C46.2861 31.2953 46.286 31.3188 46.2082 31.3188H45.7827C45.7215 31.3188 45.7048 31.3188 45.7048 31.2366V28.7589C45.7048 28.3022 45.5162 28.0544 45.1486 28.0544C44.9696 28.0817 44.8018 28.1625 44.6651 28.2874C44.5284 28.4123 44.4284 28.576 44.3771 28.7589V31.2073C44.3771 31.266 44.3771 31.2895 44.2992 31.2895H43.8776C43.8164 31.2895 43.7997 31.2895 43.7997 31.2073V27.6457C43.7997 27.5988 43.7997 27.5694 43.8776 27.5694H44.2881C44.3493 27.5694 44.366 27.5988 44.366 27.6457V28.1378C44.4661 27.9519 44.6093 27.7959 44.782 27.6844C44.9548 27.5728 45.1515 27.5092 45.3538 27.4995M49.7597 29.0167V29.8839C49.7516 30.0089 49.7688 30.1343 49.8101 30.2518C49.8515 30.3693 49.916 30.4761 49.9994 30.5653C50.0828 30.6544 50.1832 30.7238 50.294 30.7689C50.4047 30.814 50.5233 30.8337 50.6418 30.8269C51.1525 30.8269 51.4578 30.5104 51.4578 29.8839V29.0109C51.4578 28.3897 51.1525 28.0561 50.6418 28.0561C50.5236 28.0534 50.4062 28.0767 50.297 28.1246C50.1879 28.1725 50.0894 28.244 50.0079 28.3345C49.9264 28.4248 49.8637 28.5323 49.8239 28.6498C49.784 28.7673 49.7678 28.8922 49.7764 29.0167M49.7764 26.2167V28.0855C49.8851 27.8985 50.0391 27.7455 50.2225 27.6422C50.4059 27.5391 50.6121 27.4894 50.8198 27.4984C50.992 27.4955 51.1627 27.5315 51.3207 27.6038C51.4786 27.6762 51.6201 27.7834 51.7357 27.9181C51.8513 28.0529 51.9383 28.212 51.9909 28.385C52.0435 28.5581 52.0605 28.7411 52.0407 28.9216V29.9584C52.0599 30.1405 52.0417 30.3248 51.9874 30.4989C51.9331 30.6729 51.844 30.8327 51.7261 30.967C51.6082 31.1015 51.4642 31.2076 51.304 31.2781C51.1438 31.3486 50.9711 31.382 50.7976 31.3757C50.5917 31.3826 50.3878 31.3319 50.2065 31.2289C50.0253 31.1258 49.873 30.9739 49.7652 30.7886V31.2219C49.7652 31.2748 49.7263 31.2924 49.6874 31.2924H49.2769C49.2268 31.2924 49.199 31.2924 49.199 31.2219V26.2167C49.1981 26.2065 49.1994 26.1961 49.2028 26.1864C49.2061 26.1768 49.2114 26.168 49.2183 26.1608C49.2252 26.1535 49.2335 26.1479 49.2427 26.1444C49.2518 26.1408 49.2616 26.1394 49.2713 26.1404H49.7096C49.7597 26.1404 49.7764 26.1404 49.7764 26.2167ZM53.5275 26.2167V31.2249C53.5275 31.2836 53.5275 31.307 53.4497 31.307H53.028C52.9613 31.307 52.9446 31.307 52.9446 31.2249V26.2167C52.9446 26.1638 52.9446 26.1345 53.028 26.1345H53.4497C53.4603 26.1324 53.4713 26.1331 53.4817 26.1365C53.492 26.1399 53.5014 26.1459 53.5091 26.1539C53.5168 26.162 53.5225 26.172 53.5257 26.1829C53.5289 26.1938 53.5295 26.2054 53.5275 26.2167ZM55.0827 27.6493V31.2307C55.0827 31.2836 55.0827 31.307 55.0104 31.307H54.5888C54.5221 31.307 54.5054 31.307 54.5054 31.2307V27.6493C54.5054 27.5964 54.5054 27.573 54.5888 27.573H55.0104C55.066 27.573 55.0827 27.573 55.0827 27.6493ZM55.0827 26.2401V26.896C55.0827 26.9606 55.0827 26.9958 54.9882 26.9958H54.5988C54.586 26.9978 54.5729 26.9966 54.5605 26.9922C54.5482 26.9879 54.537 26.9806 54.5278 26.9709C54.5186 26.9612 54.5117 26.9494 54.5076 26.9364C54.5035 26.9234 54.5024 26.9096 54.5043 26.896V26.2401C54.5024 26.2266 54.5035 26.2128 54.5076 26.1998C54.5117 26.1867 54.5186 26.1749 54.5278 26.1653C54.537 26.1556 54.5482 26.1483 54.5605 26.144C54.5729 26.1397 54.586 26.1384 54.5988 26.1404H54.9882C55.0605 26.1404 55.0827 26.1757 55.0827 26.2401ZM56.6641 28.7883V31.2307C56.6641 31.2836 56.6641 31.307 56.5918 31.307H56.1924C56.1256 31.307 56.109 31.307 56.109 31.2307V27.6457C56.109 27.5988 56.109 27.5694 56.1868 27.5694H56.5973C56.6585 27.5694 56.6752 27.5988 56.6752 27.6457V28.1378C56.797 27.9434 56.9621 27.7836 57.156 27.6722C57.35 27.561 57.5669 27.5016 57.7876 27.4995C57.9364 27.4954 58.0843 27.5255 58.2209 27.588C58.3575 27.6505 58.4795 27.7437 58.5784 27.8612C58.6773 27.9785 58.7506 28.1175 58.7933 28.268C58.836 28.4185 58.847 28.577 58.8256 28.7325V31.2307C58.8256 31.2836 58.8256 31.307 58.7421 31.307H58.3205C58.2649 31.307 58.2371 31.307 58.2371 31.2307V28.8294C58.2371 28.3491 58.0318 28.0662 57.588 28.0662C57.3882 28.0793 57.1966 28.1548 57.0376 28.2831C56.8786 28.4113 56.7592 28.5865 56.6947 28.7866M60.1905 28.8453C60.1815 28.9564 60.196 29.0683 60.2331 29.1727C60.2702 29.2772 60.3289 29.3716 60.405 29.449C60.481 29.5265 60.5725 29.5851 60.6727 29.6205C60.7729 29.6559 60.8794 29.6672 60.9843 29.6537C61.0863 29.6679 61.1901 29.6572 61.2876 29.6227C61.3852 29.5881 61.474 29.5304 61.5473 29.4542C61.6206 29.378 61.6765 29.2851 61.7107 29.1826C61.7449 29.0801 61.7565 28.9708 61.7446 28.8629C61.7522 28.7504 61.7377 28.6373 61.7021 28.5309C61.6665 28.4245 61.6105 28.3271 61.5376 28.2444C61.4647 28.1619 61.3766 28.0961 61.2785 28.0511C61.1805 28.0061 61.0748 27.9828 60.9679 27.9828C60.861 27.9828 60.7552 28.0061 60.6572 28.0511C60.5592 28.0961 60.471 28.1619 60.3981 28.2444C60.3252 28.3271 60.2692 28.4245 60.2336 28.5309C60.198 28.6373 60.1835 28.7504 60.1911 28.8629M62.05 31.6746C62.05 31.4051 61.9059 31.1532 61.3825 31.1532H60.7334C60.245 31.1532 60.0954 31.4169 60.0954 31.6864C60.0954 32.0609 60.3735 32.3076 61.0555 32.3076C61.7374 32.3076 62.0489 32.0498 62.0489 31.6752M62.6051 31.6341C62.6051 32.2212 62.1724 32.7531 61.0238 32.7531C59.9636 32.7531 59.5475 32.3317 59.5475 31.7456C59.5499 31.5668 59.6047 31.3931 59.7043 31.2483C59.8038 31.1036 59.9434 30.9949 60.1038 30.9372C60.0308 30.8832 59.9704 30.8125 59.9272 30.7304C59.8839 30.6481 59.8589 30.5566 59.854 30.4628C59.858 30.347 59.8943 30.235 59.9585 30.1411C60.0226 30.047 60.1117 29.9751 60.2145 29.9344C60.0383 29.8272 59.8933 29.6712 59.7952 29.4832C59.6972 29.2953 59.6498 29.0825 59.6582 28.8682C59.6498 28.6877 59.6791 28.5074 59.744 28.3401C59.8089 28.1729 59.9079 28.0227 60.0338 27.9003C60.1598 27.7779 60.3098 27.6863 60.4731 27.6318C60.6363 27.5773 60.809 27.5615 60.9787 27.5852H62.525C62.5695 27.5852 62.5917 27.6147 62.5917 27.6675V28.0015C62.5917 28.0661 62.5584 28.0896 62.5139 28.0896H61.8981C62.0177 28.1936 62.1125 28.3256 62.1751 28.4752C62.2377 28.6247 62.2663 28.7876 62.2586 28.9509C62.2586 29.642 61.8203 30.1252 60.9793 30.1252H60.6895C60.4453 30.1252 60.3396 30.2426 60.3396 30.383C60.3396 30.5233 60.4508 30.6406 60.6895 30.6406H61.4498C62.2842 30.6406 62.6095 31.0799 62.6095 31.6247M67.9037 27.29C67.9093 27.3014 67.9121 27.3141 67.9119 27.3269C67.9116 27.3398 67.9082 27.3524 67.9021 27.3635C67.896 27.3747 67.8874 27.3839 67.877 27.3906C67.8665 27.3972 67.8547 27.401 67.8425 27.4015L67.4821 27.5477C67.4708 27.5523 67.4587 27.5544 67.4466 27.554C67.4345 27.5535 67.4226 27.5504 67.4117 27.5449C67.4007 27.5394 67.391 27.5316 67.383 27.522C67.375 27.5124 67.369 27.5012 67.3653 27.489C67.3038 27.2876 67.1803 27.1136 67.0144 26.9948C66.8485 26.8759 66.6498 26.819 66.4497 26.8332C65.8935 26.8332 65.5787 27.1086 65.5787 27.5595C65.5787 28.0104 65.8117 28.1466 66.6911 28.52C67.5705 28.8934 67.9454 29.2932 67.9454 29.9878C67.9405 30.1882 67.8961 30.3854 67.8149 30.5668C67.7337 30.748 67.6176 30.9094 67.4739 31.0406C67.3303 31.1718 67.1623 31.2699 66.9806 31.3287C66.799 31.3874 66.6077 31.4054 66.4191 31.3816C66.0744 31.4187 65.7285 31.3247 65.4436 31.1164C65.1588 30.9081 64.9538 30.5993 64.8656 30.2456C64.8656 30.175 64.8656 30.1457 64.9212 30.1228L65.2983 29.9942C65.3706 29.9942 65.3985 29.9942 65.4151 30.0647C65.469 30.2956 65.6007 30.4978 65.7856 30.6337C65.9704 30.7695 66.1959 30.8296 66.4197 30.8028C66.9759 30.8028 67.3352 30.5091 67.3352 30.0354C67.3352 29.5616 67.1244 29.3895 66.3196 29.0631C65.354 28.6592 64.988 28.2605 64.988 27.5694C64.995 27.3781 65.0395 27.1905 65.1189 27.0182C65.1982 26.846 65.3106 26.6932 65.4489 26.5693C65.5871 26.4453 65.7483 26.3531 65.9221 26.2983C66.0959 26.2436 66.2786 26.2276 66.4586 26.2513C66.7765 26.2281 67.0927 26.3174 67.3571 26.5052C67.6214 26.6931 67.8189 26.9686 67.9181 27.2882M68.8003 30.1528V27.6493C68.8003 27.5964 68.8281 27.5671 68.8838 27.5671H69.3054C69.361 27.5671 69.3888 27.5964 69.3888 27.6493V30.0448C69.3888 30.5309 69.594 30.8122 70.0324 30.8122C70.2331 30.7998 70.4257 30.7239 70.5851 30.5943C70.7444 30.4648 70.8631 30.2876 70.9256 30.0858V27.6493C70.9256 27.5964 70.9256 27.5671 71.0091 27.5671H71.4251C71.4919 27.5671 71.5086 27.5964 71.5086 27.6493V31.2249C71.5086 31.2777 71.5086 31.307 71.4307 31.307H71.0202C71.0095 31.3091 70.9986 31.3085 70.9882 31.3051C70.9778 31.3017 70.9684 31.2957 70.9608 31.2876C70.9531 31.2796 70.9474 31.2696 70.9442 31.2587C70.941 31.2477 70.9403 31.2361 70.9423 31.2249V30.7387C70.8223 30.9354 70.6577 31.0974 70.4635 31.2102C70.2693 31.323 70.0515 31.3829 69.8299 31.3846C69.6814 31.3878 69.5339 31.357 69.3978 31.2941C69.2617 31.2313 69.1401 31.1381 69.0414 31.0209C68.9427 30.9037 68.8693 30.7652 68.8263 30.6151C68.7832 30.4651 68.7715 30.3069 68.792 30.1516M74.7619 29.8803V28.9873C74.78 28.8664 74.772 28.7427 74.7386 28.6253C74.7051 28.508 74.647 28.4002 74.5685 28.31C74.4901 28.2196 74.3934 28.1492 74.2856 28.1038C74.1778 28.0584 74.0617 28.0393 73.9459 28.048C73.8292 28.0444 73.7131 28.0667 73.605 28.1132C73.497 28.1599 73.3993 28.2298 73.3183 28.3185C73.2374 28.4073 73.1749 28.5131 73.1349 28.6288C73.0949 28.7446 73.0782 28.868 73.086 28.9908V29.8716C73.0774 29.9958 73.0936 30.1205 73.1335 30.2376C73.1734 30.3549 73.2362 30.4619 73.3178 30.5519C73.3993 30.6419 73.4979 30.7127 73.6071 30.76C73.7162 30.8073 73.8336 30.8298 73.9515 30.8262C74.4621 30.8262 74.7675 30.498 74.7675 29.8774M72.581 32.6715C72.5713 32.6725 72.5615 32.6711 72.5523 32.6675C72.5432 32.664 72.5348 32.6585 72.528 32.6512C72.5211 32.6439 72.5158 32.6351 72.5124 32.6254C72.5091 32.6158 72.5078 32.6055 72.5087 32.5952V27.6457C72.5087 27.5929 72.5365 27.5694 72.5865 27.5694H72.997C73.0072 27.5676 73.0176 27.5682 73.0274 27.5713C73.0373 27.5744 73.0463 27.5799 73.0539 27.5872C73.0614 27.5946 73.0672 27.6037 73.0709 27.6138C73.0745 27.6241 73.0759 27.635 73.0749 27.6457V28.0673C73.1845 27.884 73.3372 27.7335 73.518 27.6306C73.6989 27.5278 73.9018 27.476 74.1072 27.4802C74.28 27.4742 74.452 27.5073 74.6116 27.5773C74.7712 27.6474 74.9147 27.7527 75.0325 27.8862C75.1503 28.0197 75.2396 28.1784 75.2945 28.3514C75.3493 28.5244 75.3684 28.7078 75.3504 28.8893V29.939C75.3692 30.1194 75.3516 30.3019 75.2986 30.4746C75.2457 30.6472 75.1586 30.8061 75.0432 30.9405C74.9278 31.0751 74.7867 31.1823 74.6292 31.2549C74.4717 31.3276 74.3014 31.3642 74.1295 31.3622C73.9223 31.373 73.7162 31.324 73.5334 31.2207C73.3506 31.1172 73.1978 30.9632 73.0916 30.7751V32.5677C73.0924 32.5779 73.0911 32.5882 73.0878 32.5979C73.0845 32.6076 73.0792 32.6163 73.0723 32.6236C73.0654 32.6309 73.0571 32.6365 73.0479 32.64C73.0388 32.6435 73.029 32.6448 73.0193 32.644L72.581 32.6715ZM78.5225 29.8803V28.9873C78.5407 28.8664 78.5327 28.7427 78.4992 28.6253C78.4657 28.508 78.4076 28.4002 78.3292 28.31C78.2507 28.2196 78.154 28.1492 78.0462 28.1038C77.9384 28.0584 77.8223 28.0393 77.7066 28.048C77.5899 28.0444 77.4737 28.0667 77.3657 28.1132C77.2576 28.1599 77.1599 28.2298 77.079 28.3185C76.998 28.4073 76.9355 28.5131 76.8955 28.6288C76.8555 28.7446 76.8388 28.868 76.8466 28.9908V29.8716C76.8381 29.9953 76.8541 30.1195 76.8937 30.2363C76.9333 30.353 76.9956 30.4598 77.0765 30.5497C77.1575 30.6396 77.2554 30.7106 77.3639 30.7582C77.4724 30.8058 77.5891 30.829 77.7066 30.8262C78.2172 30.8262 78.5225 30.498 78.5225 29.8774M76.336 32.6715C76.3263 32.6725 76.3166 32.6711 76.3074 32.6675C76.2982 32.664 76.2899 32.6585 76.283 32.6512C76.2761 32.6439 76.2708 32.6351 76.2675 32.6254C76.2642 32.6158 76.2629 32.6055 76.2637 32.5952V27.6457C76.2637 27.5929 76.2915 27.5694 76.3416 27.5694H76.7521C76.7622 27.5676 76.7726 27.5682 76.7825 27.5713C76.7924 27.5744 76.8014 27.5799 76.809 27.5872C76.8165 27.5946 76.8223 27.6037 76.826 27.6138C76.8296 27.6241 76.831 27.635 76.83 27.6457V28.0673C76.9396 27.884 77.0922 27.7335 77.2731 27.6306C77.4539 27.5278 77.6569 27.476 77.8623 27.4802C78.0355 27.4733 78.2081 27.5058 78.3684 27.5754C78.5287 27.6451 78.6729 27.7503 78.7913 27.884C78.9097 28.0176 78.9996 28.1765 79.0547 28.3499C79.1099 28.5234 79.1291 28.7073 79.111 28.8893V29.939C79.1299 30.1197 79.1122 30.3025 79.059 30.4754C79.0059 30.6481 78.9186 30.8071 78.8029 30.9417C78.6873 31.0762 78.5458 31.1833 78.388 31.2558C78.2301 31.3283 78.0595 31.3645 77.8873 31.3622C77.6803 31.3717 77.4747 31.3222 77.2921 31.2189C77.1095 31.1157 76.9566 30.9624 76.8494 30.7751V32.5677C76.8503 32.5779 76.849 32.5882 76.8457 32.5979C76.8423 32.6076 76.837 32.6163 76.8301 32.6236C76.8232 32.6309 76.8149 32.6365 76.8058 32.64C76.7966 32.6435 76.7868 32.6448 76.7771 32.644L76.336 32.6715ZM80.5199 28.9814V29.9303C80.5199 30.168 80.6094 30.396 80.7686 30.564C80.9279 30.7321 81.1438 30.8265 81.369 30.8265C81.5942 30.8265 81.8102 30.7321 81.9694 30.564C82.1286 30.396 82.2181 30.168 82.2181 29.9303V28.9814C82.2181 28.7438 82.1286 28.5158 81.9694 28.3478C81.8102 28.1796 81.5942 28.0853 81.369 28.0853C81.1438 28.0853 80.9279 28.1796 80.7686 28.3478C80.6094 28.5158 80.5199 28.7438 80.5199 28.9814ZM82.8005 28.9521V29.9303C82.8005 30.3311 82.6496 30.7155 82.3811 30.9989C82.1126 31.2823 81.7485 31.4415 81.3687 31.4415C80.989 31.4415 80.6249 31.2823 80.3564 30.9989C80.0879 30.7155 79.937 30.3311 79.937 29.9303V28.9697C79.937 28.5689 80.0879 28.1845 80.3564 27.9011C80.6249 27.6176 80.989 27.4585 81.3687 27.4585C81.7485 27.4585 82.1126 27.6176 82.3811 27.9011C82.6496 28.1845 82.8005 28.5689 82.8005 28.9697M85.4587 27.5877V28.0015C85.4587 28.0661 85.4587 28.0896 85.3697 28.0896H85.2974C85.0754 28.0817 84.857 28.1499 84.6749 28.2839C84.4928 28.4181 84.3568 28.6109 84.2872 28.8335V31.2132C84.2872 31.266 84.2539 31.2836 84.2149 31.2836H83.7766C83.7677 31.2845 83.7586 31.2833 83.7501 31.2801C83.7416 31.2768 83.7339 31.2717 83.7275 31.265C83.7212 31.2583 83.7163 31.2501 83.7132 31.2412C83.7102 31.2322 83.709 31.2226 83.7099 31.2132V27.6457C83.7099 27.587 83.7099 27.5694 83.7878 27.5694H84.1871C84.2427 27.5694 84.2706 27.5988 84.2706 27.6516V28.2387C84.3723 28.0215 84.5316 27.8401 84.729 27.7163C84.9264 27.5927 85.1536 27.532 85.383 27.5419C85.4664 27.5419 85.4887 27.5419 85.4887 27.6299M87.1535 26.6906V27.5865H87.9083C87.9639 27.5865 87.9861 27.6159 87.9861 27.6805V28.0144C87.9861 28.079 87.9861 28.1026 87.9083 28.1026H87.1535V30.2637C87.1535 30.5978 87.3253 30.7499 87.6474 30.7499H87.9027C87.9583 30.7499 87.9861 30.7499 87.9861 30.8321V31.2125C87.9861 31.2771 87.9861 31.3006 87.9027 31.3006H87.564C87.4379 31.32 87.3093 31.3095 87.1875 31.27C87.0657 31.2304 86.9537 31.1628 86.8597 31.0721C86.7657 30.9812 86.692 30.8695 86.6439 30.7449C86.5958 30.6204 86.5746 30.4861 86.5817 30.3519V28.1084H86.0989C86.0544 28.1084 86.0266 28.1084 86.0266 28.0203V27.6863C86.0266 27.6217 86.0544 27.5923 86.0989 27.5923H86.5872V26.6911C86.5872 26.6441 86.5872 26.6148 86.6707 26.6148H87.07C87.1368 26.6148 87.1535 26.6142 87.1535 26.6906ZM93.5128 27.3293C93.5128 27.3998 93.5128 27.4526 93.4182 27.4814L92.7969 27.7215C92.7815 27.7301 92.7644 27.7348 92.747 27.7356C92.7295 27.7362 92.7122 27.7328 92.6962 27.7254C92.6802 27.7181 92.6659 27.7072 92.6545 27.6932C92.643 27.6794 92.6347 27.6629 92.63 27.6452C92.5779 27.4965 92.4803 27.3702 92.3527 27.2865C92.2251 27.2027 92.0748 27.1662 91.9253 27.1825C91.5426 27.1825 91.2929 27.3757 91.2929 27.6686C91.2929 27.9617 91.487 28.0843 92.3497 28.4008C93.2124 28.7172 93.5595 29.1505 93.5595 29.8686C93.5595 30.73 92.8603 31.3858 91.8502 31.3858C91.4771 31.4335 91.1001 31.3378 90.7883 31.1163C90.4765 30.8947 90.2506 30.5621 90.1521 30.1792C90.147 30.1643 90.1448 30.1483 90.1457 30.1324C90.1466 30.1166 90.1506 30.101 90.1573 30.0868C90.1641 30.0725 90.1735 30.06 90.1851 30.0498C90.1966 30.0394 90.21 30.0318 90.2244 30.0272L90.8957 29.7923C90.9847 29.763 91.0287 29.7923 91.0509 29.8862C91.0876 30.0723 91.1901 30.2367 91.3376 30.3458C91.4851 30.4549 91.6664 30.5005 91.8447 30.4733C92.2996 30.4733 92.5383 30.2685 92.5383 29.9637C92.5383 29.659 92.3664 29.5528 91.6672 29.2962C90.6627 28.9157 90.28 28.4935 90.28 27.711C90.2946 27.5027 90.3486 27.2996 90.4388 27.1136C90.5289 26.9277 90.6534 26.7628 90.805 26.6285C90.9565 26.4942 91.132 26.3933 91.3211 26.3318C91.5101 26.2702 91.709 26.2492 91.9058 26.2701C92.2504 26.2339 92.5965 26.3211 92.8883 26.5178C93.1802 26.7143 93.401 27.0089 93.515 27.354M95.513 26.7445V27.5882H96.1804C96.1947 27.5863 96.2093 27.5879 96.2229 27.5928C96.2366 27.5977 96.249 27.6059 96.2592 27.6167C96.2694 27.6275 96.2771 27.6406 96.2818 27.6549C96.2864 27.6694 96.2879 27.6847 96.2861 27.6998V28.3151C96.287 28.3297 96.2849 28.3444 96.2798 28.358C96.2747 28.3717 96.2669 28.3841 96.2568 28.3941C96.2467 28.4042 96.2346 28.4118 96.2214 28.4165C96.2082 28.421 96.1942 28.4225 96.1804 28.4208H95.513V30.09C95.513 30.3066 95.6242 30.4299 95.8901 30.4299H96.1788C96.2455 30.4299 96.2844 30.4651 96.2844 30.5297V31.2249C96.2844 31.2953 96.2455 31.3247 96.1788 31.3247H95.7316C94.9323 31.3247 94.5551 30.8796 94.5551 30.2233V28.4032H94.1446C94.1308 28.4049 94.1168 28.4034 94.1036 28.3989C94.0904 28.3942 94.0784 28.3866 94.0683 28.3765C94.0582 28.3665 94.0503 28.3541 94.0453 28.3405C94.0402 28.3268 94.038 28.3121 94.039 28.2974V27.681C94.0372 27.6659 94.0386 27.6506 94.0433 27.6361C94.048 27.6218 94.0557 27.6087 94.0659 27.5979C94.0761 27.5871 94.0885 27.5789 94.1021 27.5741C94.1158 27.5691 94.1303 27.5675 94.1446 27.5694H94.5718V26.744C94.5701 26.7301 94.5714 26.7161 94.5755 26.7029C94.5795 26.6897 94.5863 26.6776 94.5954 26.6674C94.6044 26.6573 94.6155 26.6495 94.6278 26.6444C94.6401 26.6394 94.6532 26.6372 94.6664 26.6383H95.4212C95.4824 26.6383 95.5102 26.6794 95.5102 26.744M98.8509 30.0359V29.6837C98.6656 29.672 98.4799 29.672 98.2946 29.6837C97.9342 29.7307 97.7384 29.8475 97.7384 30.1404C97.7384 30.4334 97.9053 30.5515 98.1834 30.5515C98.3361 30.5537 98.4852 30.5026 98.6076 30.4062C98.73 30.3098 98.8188 30.1735 98.8603 30.0183M99.8092 28.7296V31.1896C99.8092 31.2033 99.8066 31.2168 99.8015 31.2292C99.7964 31.2418 99.789 31.2531 99.7796 31.2624C99.7702 31.2718 99.7591 31.2789 99.747 31.2836C99.7349 31.2882 99.722 31.2902 99.7091 31.2895H98.9988C98.9859 31.2902 98.973 31.2882 98.9609 31.2836C98.9488 31.2789 98.9377 31.2718 98.9283 31.2624C98.9189 31.2531 98.9115 31.2418 98.9064 31.2292C98.9013 31.2168 98.8987 31.2033 98.8987 31.1896V30.7857C98.7995 30.9671 98.6561 31.1173 98.4833 31.2206C98.3106 31.3238 98.1149 31.3764 97.9164 31.3728C97.7672 31.3856 97.6172 31.364 97.4768 31.3095C97.3363 31.255 97.2088 31.169 97.1029 31.0573C96.9971 30.9455 96.9156 30.8109 96.864 30.6626C96.8123 30.5144 96.7918 30.3561 96.8039 30.1986C96.8039 29.5134 97.2144 29.1088 98.2079 29.0244C98.4219 29.0038 98.6373 29.0038 98.8514 29.0244V28.7589C98.8609 28.6891 98.8548 28.618 98.8335 28.5512C98.8122 28.4844 98.7764 28.4238 98.7289 28.3743C98.6814 28.3247 98.6236 28.2876 98.56 28.2659C98.4965 28.2442 98.429 28.2385 98.363 28.2493C98.255 28.2339 98.1453 28.2605 98.0544 28.3241C97.9636 28.3878 97.8977 28.484 97.8691 28.5952C97.8357 28.6773 97.8135 28.6949 97.7417 28.6715L97.0314 28.4842C96.9591 28.4842 96.9536 28.4196 96.9703 28.3668C97.0648 27.8278 97.5265 27.4356 98.3964 27.4356C99.2664 27.4356 99.8003 27.8806 99.8003 28.7243M102.697 27.5882V28.3203C102.697 28.4085 102.664 28.4378 102.581 28.4378H102.476C102.273 28.4107 102.068 28.4623 101.898 28.583C101.729 28.7036 101.607 28.8851 101.554 29.0936V31.1896C101.556 31.2022 101.555 31.2149 101.552 31.227C101.548 31.239 101.542 31.2502 101.534 31.2596C101.526 31.2691 101.517 31.2767 101.506 31.2818C101.495 31.287 101.483 31.2896 101.471 31.2895H100.661C100.649 31.2896 100.637 31.287 100.626 31.2818C100.615 31.2767 100.605 31.2691 100.597 31.2596C100.589 31.2502 100.583 31.239 100.58 31.227C100.576 31.2149 100.576 31.2022 100.577 31.1896V27.6164C100.576 27.6033 100.578 27.5901 100.583 27.5779C100.587 27.5656 100.594 27.5546 100.603 27.5456C100.612 27.5366 100.623 27.5298 100.635 27.5258C100.647 27.5218 100.659 27.5206 100.672 27.5224H101.41C101.423 27.5215 101.436 27.5236 101.448 27.5287C101.461 27.5337 101.472 27.5415 101.481 27.5517C101.49 27.5618 101.497 27.5738 101.501 27.5871C101.505 27.6003 101.506 27.6144 101.504 27.6282V28.173C101.598 27.9685 101.746 27.7972 101.93 27.6798C102.115 27.5623 102.327 27.5039 102.542 27.5114C102.67 27.5114 102.697 27.5114 102.697 27.6287M104.595 26.7445V27.5882H105.263C105.277 27.5872 105.291 27.5896 105.303 27.5948C105.316 27.6002 105.328 27.6086 105.338 27.6191C105.347 27.6298 105.354 27.6426 105.359 27.6565C105.363 27.6704 105.365 27.6852 105.363 27.6998V28.3151C105.365 28.3294 105.363 28.344 105.359 28.3577C105.355 28.3714 105.347 28.3839 105.338 28.3941C105.328 28.4044 105.316 28.4121 105.303 28.4167C105.29 28.4213 105.276 28.4227 105.263 28.4208H104.595V30.09C104.595 30.3066 104.707 30.4299 104.967 30.4299H105.261C105.274 30.4282 105.287 30.4294 105.3 30.4338C105.312 30.4381 105.324 30.4453 105.334 30.4548C105.343 30.4644 105.351 30.476 105.355 30.489C105.36 30.502 105.362 30.5159 105.361 30.5297V31.2249C105.361 31.2953 105.322 31.3247 105.261 31.3247H104.812C104.012 31.3247 103.641 30.8796 103.641 30.2233V28.4032H103.225C103.211 28.4051 103.197 28.4037 103.184 28.3991C103.171 28.3944 103.16 28.3867 103.15 28.3765C103.14 28.3662 103.133 28.3538 103.128 28.3401C103.124 28.3263 103.123 28.3118 103.125 28.2974V27.681C103.123 27.6664 103.124 27.6516 103.129 27.6377C103.133 27.6238 103.14 27.611 103.15 27.6003C103.159 27.5898 103.171 27.5814 103.184 27.5761C103.197 27.5708 103.211 27.5685 103.225 27.5694H103.652V26.744C103.65 26.7296 103.651 26.715 103.656 26.7013C103.66 26.6876 103.667 26.6751 103.677 26.6649C103.687 26.6547 103.699 26.647 103.712 26.6423C103.725 26.6377 103.738 26.6363 103.752 26.6383H104.507C104.52 26.6382 104.532 26.6409 104.544 26.6463C104.555 26.6518 104.566 26.6597 104.574 26.6698C104.582 26.6798 104.589 26.6916 104.593 26.7044C104.596 26.7172 104.597 26.7307 104.596 26.744M108.813 28.3779C108.813 28.4367 108.813 28.4894 108.735 28.5123L108.142 28.7348C108.075 28.7348 108.042 28.7348 108.014 28.6585C107.969 28.5291 107.885 28.4191 107.774 28.346C107.663 28.2728 107.533 28.2407 107.403 28.2546C107.097 28.2546 106.92 28.3779 106.92 28.5652C106.92 28.7525 107.047 28.823 107.73 29.0162C108.524 29.2387 108.843 29.6033 108.843 30.1904C108.843 30.9167 108.286 31.3647 107.4 31.3647C106.513 31.3647 106.046 31.0306 105.862 30.4569C105.862 30.3748 105.862 30.3342 105.957 30.2932L106.479 30.0236C106.557 29.9825 106.6 30.0236 106.639 30.1058C106.697 30.2545 106.798 30.3798 106.929 30.4631C107.059 30.5464 107.211 30.5833 107.362 30.5685C107.723 30.5685 107.919 30.4452 107.919 30.2403C107.919 30.0354 107.719 29.9355 107.081 29.7483C106.298 29.5316 105.969 29.1612 105.969 28.574C105.969 27.8595 106.525 27.3998 107.356 27.3998C107.658 27.3675 107.962 27.4397 108.222 27.6055C108.483 27.7713 108.685 28.0217 108.799 28.3192M114.793 26.4163V31.1956C114.793 31.2542 114.793 31.2953 114.692 31.2953H113.904C113.891 31.2962 113.878 31.2941 113.866 31.2895C113.854 31.2849 113.843 31.2776 113.834 31.2683C113.824 31.2589 113.817 31.2476 113.812 31.2351C113.807 31.2226 113.804 31.2092 113.804 31.1956V29.3091H112.178V31.2073C112.179 31.2211 112.177 31.235 112.172 31.248C112.168 31.261 112.16 31.2726 112.151 31.2822C112.141 31.2917 112.13 31.2989 112.117 31.3032C112.104 31.3076 112.091 31.3088 112.078 31.307H111.268C111.255 31.3079 111.242 31.3059 111.23 31.3012C111.218 31.2966 111.207 31.2894 111.197 31.28C111.188 31.2706 111.18 31.2594 111.175 31.2469C111.17 31.2344 111.168 31.2209 111.168 31.2073V26.4163C111.168 26.4022 111.17 26.3881 111.176 26.3753C111.181 26.3623 111.189 26.3507 111.199 26.3413C111.209 26.3318 111.221 26.3247 111.234 26.3205C111.246 26.3161 111.26 26.3149 111.273 26.3165H112.078C112.091 26.3148 112.104 26.316 112.117 26.3204C112.13 26.3247 112.141 26.3319 112.151 26.3414C112.16 26.351 112.168 26.3626 112.172 26.3756C112.177 26.3886 112.179 26.4025 112.178 26.4163V28.3139H113.804V26.4163C113.804 26.4027 113.807 26.3892 113.812 26.3767C113.817 26.3642 113.824 26.353 113.834 26.3436C113.843 26.3342 113.854 26.327 113.866 26.3224C113.878 26.3177 113.891 26.3157 113.904 26.3165H114.709C114.781 26.3165 114.809 26.3576 114.809 26.4163M116.507 28.941V29.0696H117.751V28.941C117.757 28.8504 117.746 28.7594 117.718 28.6736C117.69 28.5878 117.645 28.5091 117.587 28.4424C117.529 28.3756 117.458 28.3224 117.379 28.286C117.3 28.2496 117.215 28.2308 117.129 28.2308C117.043 28.2308 116.958 28.2496 116.879 28.286C116.8 28.3224 116.729 28.3756 116.671 28.4424C116.613 28.5091 116.568 28.5878 116.54 28.6736C116.512 28.7594 116.501 28.8504 116.507 28.941ZM116.507 29.7377V29.8803C116.493 29.9733 116.5 30.0686 116.527 30.1582C116.555 30.2478 116.603 30.3289 116.666 30.395C116.73 30.4611 116.808 30.51 116.893 30.5376C116.978 30.5653 117.069 30.5708 117.156 30.5538C117.296 30.5765 117.439 30.5497 117.562 30.4777C117.686 30.4056 117.783 30.2924 117.839 30.1557C117.9 30.0501 117.928 30.0382 118.028 30.0852L118.538 30.3606C118.644 30.4135 118.649 30.4663 118.605 30.5714C118.465 30.8432 118.253 31.0659 117.994 31.2119C117.736 31.358 117.443 31.421 117.151 31.3934C116.948 31.4218 116.743 31.4031 116.548 31.3385C116.353 31.2739 116.174 31.1649 116.023 31.0195C115.872 30.8739 115.753 30.6953 115.675 30.4963C115.597 30.2971 115.561 30.0823 115.57 29.8668V28.9873C115.56 28.7733 115.595 28.5594 115.672 28.3611C115.748 28.1626 115.866 27.9845 116.015 27.839C116.164 27.6934 116.341 27.5842 116.535 27.5188C116.728 27.4535 116.933 27.4338 117.134 27.4608C117.33 27.4402 117.528 27.4646 117.714 27.5321C117.9 27.5998 118.07 27.7092 118.213 27.8527C118.355 27.9964 118.466 28.1706 118.539 28.3639C118.611 28.5571 118.643 28.7646 118.633 28.972V29.5592C118.633 29.659 118.599 29.7289 118.461 29.7289L116.507 29.7377ZM121.446 27.5882V28.3203C121.446 28.4085 121.418 28.4378 121.329 28.4378H121.229C121.026 28.4107 120.821 28.4623 120.652 28.583C120.482 28.7036 120.36 28.8851 120.308 29.0936V31.1896C120.309 31.202 120.307 31.2143 120.303 31.2261C120.3 31.2378 120.294 31.2485 120.286 31.2578C120.278 31.2671 120.269 31.2747 120.258 31.2801C120.248 31.2855 120.236 31.2888 120.225 31.2895H119.409C119.397 31.2896 119.385 31.287 119.374 31.2818C119.363 31.2767 119.353 31.2691 119.345 31.2596C119.337 31.2502 119.332 31.239 119.328 31.227C119.325 31.2149 119.324 31.2022 119.325 31.1896V27.6164C119.324 27.6033 119.326 27.5901 119.331 27.5779C119.335 27.5656 119.342 27.5546 119.351 27.5456C119.36 27.5366 119.371 27.5298 119.383 27.5258C119.395 27.5218 119.407 27.5206 119.42 27.5224H120.158C120.236 27.5224 120.252 27.5753 120.252 27.6282V28.173C120.346 27.9685 120.494 27.7972 120.678 27.6798C120.863 27.5623 121.075 27.5039 121.29 27.5114C121.423 27.5114 121.446 27.5114 121.446 27.6287M122.855 28.941V29.0696H124.099V28.941C124.106 28.8504 124.095 28.7594 124.067 28.6736C124.039 28.5878 123.994 28.5091 123.936 28.4424C123.877 28.3756 123.806 28.3224 123.728 28.286C123.649 28.2496 123.564 28.2308 123.478 28.2308C123.392 28.2308 123.307 28.2496 123.228 28.286C123.149 28.3224 123.078 28.3756 123.02 28.4424C122.961 28.5091 122.917 28.5878 122.888 28.6736C122.86 28.7594 122.848 28.8504 122.855 28.941ZM122.856 29.7377V29.8803C122.842 29.9733 122.848 30.0686 122.876 30.1582C122.904 30.2478 122.951 30.3289 123.015 30.395C123.079 30.4611 123.156 30.51 123.242 30.5376C123.327 30.5653 123.417 30.5708 123.505 30.5538C123.645 30.5768 123.789 30.5502 123.913 30.4782C124.038 30.4062 124.136 30.2928 124.193 30.1557C124.249 30.0501 124.277 30.0382 124.376 30.0852L124.887 30.3606C124.993 30.4135 124.998 30.4663 124.954 30.5714C124.814 30.8432 124.601 31.0659 124.343 31.2119C124.085 31.358 123.792 31.421 123.5 31.3934C123.298 31.42 123.093 31.3998 122.9 31.3344C122.706 31.2689 122.529 31.1597 122.379 31.0144C122.23 30.8691 122.112 30.6912 122.034 30.493C121.957 30.2948 121.921 30.0811 121.929 29.8668V28.9873C121.92 28.7733 121.954 28.5594 122.031 28.3611C122.108 28.1626 122.225 27.9845 122.375 27.839C122.524 27.6934 122.701 27.5842 122.895 27.5188C123.088 27.4535 123.293 27.4338 123.494 27.4608C123.69 27.4402 123.888 27.4646 124.074 27.5321C124.26 27.5998 124.43 27.7092 124.573 27.8527C124.715 27.9964 124.826 28.1706 124.899 28.3639C124.971 28.5571 125.003 28.7646 124.993 28.972V29.5592C124.993 29.659 124.959 29.7289 124.821 29.7289L122.856 29.7377Z" fill="white"/>
</g>
</g>
</g>
<defs>
<clipPath id="clip0_1_388">
<rect width="125" height="38" fill="white" transform="translate(0.189453)"/>
</clipPath>
</defs>
</svg>
